<?xml version="1.0" encoding="UTF-8" standalone="no"?>
<svg
   xmlns:dc="http://purl.org/dc/elements/1.1/"
   xmlns:cc="http://creativecommons.org/ns#"
   xmlns:rdf="http://www.w3.org/1999/02/22-rdf-syntax-ns#"
   xmlns:svg="http://www.w3.org/2000/svg"
   xmlns="http://www.w3.org/2000/svg"
   xmlns:xlink="http://www.w3.org/1999/xlink"
   xmlns:sodipodi="http://sodipodi.sourceforge.net/DTD/sodipodi-0.dtd"
   xmlns:inkscape="http://www.inkscape.org/namespaces/inkscape"
   inkscape:export-ydpi="96"
   inkscape:export-xdpi="96"
   inkscape:export-filename="/home/maug/GIT/xfce4-screenshooter/icons/32x32/org.xfce.screenshooter.png"
   inkscape:version="1.0 (4035a4fb49, 2020-05-01)"
   sodipodi:docname="org.xfce.screenshooter.svg"
   id="svg18"
   version="1.1"
   width="32"
   height="32">
  <metadata
     id="metadata24">
    <rdf:RDF>
      <cc:Work
         rdf:about="">
        <dc:format>image/svg+xml</dc:format>
        <dc:type
           rdf:resource="http://purl.org/dc/dcmitype/StillImage" />
        <dc:title />
      </cc:Work>
    </rdf:RDF>
  </metadata>
  <defs
     id="defs22">
    <linearGradient
       id="linearGradient1175"
       inkscape:collect="always">
      <stop
         id="stop1171"
         offset="0"
         style="stop-color:#d2d8dc;stop-opacity:1" />
      <stop
         id="stop1173"
         offset="1"
         style="stop-color:#758087;stop-opacity:1" />
    </linearGradient>
    <linearGradient
       inkscape:collect="always"
       id="linearGradient948">
      <stop
         style="stop-color:#d2d8dc;stop-opacity:1"
         offset="0"
         id="stop944" />
      <stop
         style="stop-color:#758087;stop-opacity:1"
         offset="1"
         id="stop946" />
    </linearGradient>
    <linearGradient
       y2="233.40434"
       x2="1118.7346"
       y1="283.53955"
       x1="1118.7346"
       gradientUnits="userSpaceOnUse"
       id="linearGradient942"
       xlink:href="#linearGradient948"
       inkscape:collect="always" />
    <linearGradient
       y2="233.40434"
       x2="1118.7346"
       y1="283.53955"
       x1="1118.7346"
       gradientUnits="userSpaceOnUse"
       id="linearGradient1134"
       xlink:href="#linearGradient1175"
       inkscape:collect="always" />
    <linearGradient
       id="linearGradient9567">
      <stop
         id="stop9569"
         offset="0"
         style="stop-color:#204a87;stop-opacity:1" />
      <stop
         id="stop9571"
         offset="1"
         style="stop-color:#081527;stop-opacity:0.99" />
    </linearGradient>
    <clipPath
       clipPathUnits="userSpaceOnUse"
       id="clipPath868">
      <path
         inkscape:connector-curvature="0"
         d="m -2.0971567,113.70042 c 0.05056,-0.009 1.3112656,0.6678 2.1586598,0.90154 1.5110613,0.3925 2.890367,1.57382 3.5570419,2.2524 0.049434,0.0581 0.5726041,-0.39814 1.1201161,-0.36528 0.7478711,0.0461 3.0619708,0.70744 3.3711541,0.25705 0.1874857,-0.2644 0.1740471,-0.58879 0.4079578,-0.72166 0.1259278,-0.0358 -0.468103,-1.14015 0.1632379,-1.49396 0.4501508,-0.22868 0.8316049,1.0516 0.9471991,1.19507 0.05178,0.0642 0.326476,0.0799 0.293958,-0.0664 -0.03524,-0.15886 -0.4795658,-1.38737 0.06532,-1.5935 0.884984,-0.3562 0.728135,1.5719 0.751161,1.62674 0.04896,0.11673 3.082175,0.20671 3.266089,1.59349 0.10638,0.76322 -2.430068,1.74967 -2.678169,1.92543 -0.248004,0.17576 -0.227331,0.45688 -0.130627,0.63082 0.111175,0.18866 0.850119,0.82541 0.751254,1.12869 -0.06794,0.17519 -1.447062,-0.46691 -1.535118,-0.33194 -0.200829,0.25782 1.00396,0.90316 0.587922,1.36109 -0.164931,0.10967 -2.0625223,-0.80754 -2.0577299,-0.79675 -0.050933,0.0197 -2.68136,0.48841 -4.7031898,-0.13287 -0.071234,-0.0204 -1.297638,1.20415 -1.4371007,1.16203 -0.1906802,-0.0711 0.2810866,-1.06508 0.2286469,-1.26156 -0.085708,-0.10947 -0.8693848,0.44447 -0.9144936,0.16602 -0.053943,-0.36594 0.6877265,-0.78662 0.6532363,-1.02915 -0.1912436,-1.37781 0.085426,-2.18239 0.5552175,-2.85496 0.1566604,-0.24759 -1.8412037,-1.7811 -3.2876088,-2.38632 -1.446311,-0.60523 -2.2201205,-1.11818 -2.1341311,-1.16604 z"
         id="path870"
         style="fill:#020202;fill-opacity:1;fill-rule:evenodd;stroke:#000002;stroke-width:0.0947465pt;stroke-linecap:butt;stroke-linejoin:miter;stroke-opacity:1" />
    </clipPath>
  </defs>
  <sodipodi:namedview
     inkscape:document-rotation="0"
     inkscape:pagecheckerboard="false"
     inkscape:guide-bbox="true"
     showguides="true"
     inkscape:current-layer="g16"
     inkscape:window-maximized="1"
     inkscape:window-y="0"
     inkscape:window-x="0"
     inkscape:cy="11.676859"
     inkscape:cx="16.597918"
     inkscape:zoom="55.735729"
     showgrid="true"
     id="namedview20"
     inkscape:window-height="1031"
     inkscape:window-width="1920"
     inkscape:pageshadow="2"
     inkscape:pageopacity="0"
     guidetolerance="10"
     gridtolerance="10"
     objecttolerance="10"
     borderopacity="1"
     bordercolor="#666666"
     pagecolor="#ffffff">
    <sodipodi:guide
       inkscape:locked="false"
       id="guide1036"
       orientation="0,1"
       position="-32.300885,140.26549" />
    <inkscape:grid
       empspacing="4"
       id="grid841"
       type="xygrid" />
    <sodipodi:guide
       inkscape:locked="false"
       id="guide895"
       orientation="1,0"
       position="-31.532847,112.9927" />
  </sodipodi:namedview>
  <g
     transform="translate(0,-80)"
     style="stroke-width:4"
     id="g16">
    <path
       d="m 1084,61.125 a 27.159795,27.159795 0 0 0 -27.0625,24.900391 l -16,191.999999 A 27.159795,27.159795 0 0 0 1068,307.4375 h 48 48 a 27.159795,27.159795 0 0 0 27.0625,-29.41211 l -16,-191.999999 A 27.159795,27.159795 0 0 0 1148,61.125 h -32 z"
       id="rect2101-7"
       style="display:inline;opacity:1;fill:#a7b0b7;fill-opacity:1;stroke:none;stroke-width:20;stroke-linecap:square;stroke-linejoin:miter;stroke-miterlimit:4;stroke-dasharray:none;stroke-dashoffset:0;stroke-opacity:1;enable-background:new"
       inkscape:original="M 1084 88.28125 L 1068 280.28125 L 1116 280.28125 L 1164 280.28125 L 1148 88.28125 L 1116 88.28125 L 1084 88.28125 z "
       inkscape:radius="27.15708"
       sodipodi:type="inkscape:offset"
       transform="matrix(0.06652824,0,0,0.06495813,-58.245516,90.029434)" />
    <path
       d="m 1084,61.125 a 27.159795,27.159795 0 0 0 -27.0625,24.900391 l -16,191.999999 A 27.159795,27.159795 0 0 0 1068,307.4375 h 48 48 a 27.159795,27.159795 0 0 0 27.0625,-29.41211 l -16,-191.999999 A 27.159795,27.159795 0 0 0 1148,61.125 h -32 z"
       id="rect2101"
       style="display:inline;opacity:1;fill:url(#linearGradient1134);fill-opacity:1;stroke:none;stroke-width:20;stroke-linecap:square;stroke-linejoin:miter;stroke-miterlimit:4;stroke-dasharray:none;stroke-dashoffset:0;stroke-opacity:1;enable-background:new"
       inkscape:original="M 1084 88.28125 L 1068 280.28125 L 1116 280.28125 L 1164 280.28125 L 1148 88.28125 L 1116 88.28125 L 1084 88.28125 z "
       inkscape:radius="27.15708"
       sodipodi:type="inkscape:offset"
       transform="matrix(0.06652824,0,0,0.06495813,-58.245516,89.029434)" />
    <path
       inkscape:connector-curvature="0"
       style="fill:#758087;fill-opacity:1;stroke-width:0.999998"
       id="path6"
       d="m 3.0001182,83 c -0.5539949,0 -0.9999907,0.457 -0.9999907,1.026 v 17.94801 A 1.0099907,1.01 0 0 0 3.0001182,103 H 28.999882 c 0.553994,0 0.99999,-0.458 0.99999,-1.02599 V 84.026 A 1.0099907,1.01 0 0 0 28.999882,83 Z" />
    <path
       inkscape:connector-curvature="0"
       style="fill:#bcc5ca;fill-opacity:1;stroke:none;stroke-width:0.640093;stroke-miterlimit:4;stroke-dasharray:none;stroke-opacity:1"
       id="path8"
       d="M 2.9999999,82 C 2.4459999,82 2,82.446 2,82.999999 V 101 c 0,0.55399 0.4459999,1 0.9999999,1 H 29.000002 C 29.554003,102 30,101.55399 30,101 V 82.999999 C 30,82.446 29.554003,82 29.000002,82 Z" />
    <path
       d="M 3.9285714,83 C 3.4141429,83 3,83.4014 3,83.899999 V 100.1 c 0,0.49859 0.4141429,0.9 0.9285714,0.9 H 28.07143 C 28.58586,101 29,100.59859 29,100.1 V 83.899999 C 29,83.4014 28.58586,83 28.07143,83 Z"
       id="path8-0"
       style="fill:#d2d8dc;fill-opacity:1;stroke:none;stroke-width:0.585156;stroke-miterlimit:4;stroke-dasharray:none;stroke-opacity:1"
       inkscape:connector-curvature="0" />
    <path
       inkscape:connector-curvature="0"
       style="fill:#344958;fill-opacity:1;stroke-width:1.10397"
       id="path12-5-1-8"
       d="M 3.0001182,83 H 29.000118 v 18 H 3.0001182 Z" />
    <g
       transform="matrix(0.24571572,0,0,0.24796231,4.5933366,29.224286)"
       id="g2436"
       style="display:inline;stroke-width:4;enable-background:new" />
    <path
       inkscape:connector-curvature="0"
       style="fill:#00aade;fill-opacity:1;stroke-width:0.905821"
       id="path10"
       d="m 4,84 h 24 v 16 H 4 Z" />
    <rect
       style="fill:#f1f3f5;fill-rule:evenodd;stroke-width:2.3094"
       id="rect1099"
       width="1"
       height="1"
       x="5"
       y="98"
       ry="0" />
    <rect
       ry="0"
       y="98"
       x="7"
       height="1"
       width="1"
       id="rect1099-5"
       style="fill:#f1f3f5;fill-rule:evenodd;stroke-width:2.3094" />
    <rect
       ry="0"
       y="98"
       x="9"
       height="1"
       width="1"
       id="rect1099-4"
       style="fill:#f1f3f5;fill-rule:evenodd;stroke-width:2.3094" />
    <rect
       ry="0"
       y="98"
       x="11"
       height="1"
       width="1"
       id="rect1099-8"
       style="fill:#f1f3f5;fill-rule:evenodd;stroke-width:2.3094" />
    <rect
       ry="0"
       y="98"
       x="13"
       height="1"
       width="1"
       id="rect1099-7"
       style="fill:#f1f3f5;fill-rule:evenodd;stroke-width:2.3094" />
    <rect
       ry="0"
       y="98"
       x="15"
       height="1"
       width="1"
       id="rect1099-1"
       style="fill:#f1f3f5;fill-rule:evenodd;stroke-width:2.3094" />
    <rect
       ry="0"
       y="98"
       x="17"
       height="1"
       width="1"
       id="rect1099-72"
       style="fill:#f1f3f5;fill-rule:evenodd;stroke-width:2.3094" />
    <rect
       ry="0"
       y="98"
       x="19"
       height="1"
       width="1"
       id="rect1099-722"
       style="fill:#f1f3f5;fill-rule:evenodd;stroke-width:2.3094" />
    <rect
       ry="0"
       y="98"
       x="21"
       height="1"
       width="1"
       id="rect1099-6"
       style="fill:#f1f3f5;fill-rule:evenodd;stroke-width:2.3094" />
    <rect
       ry="0"
       y="98"
       x="23"
       height="1"
       width="1"
       id="rect1099-10"
       style="fill:#f1f3f5;fill-rule:evenodd;stroke-width:2.3094" />
    <rect
       ry="0"
       y="98"
       x="25"
       height="1"
       width="1"
       id="rect1099-61"
       style="fill:#f1f3f5;fill-rule:evenodd;stroke-width:2.3094" />
    <rect
       ry="0"
       y="96"
       x="5"
       height="1"
       width="1"
       id="rect1099-59"
       style="fill:#f1f3f5;fill-rule:evenodd;stroke-width:2.3094" />
    <rect
       ry="0"
       y="94"
       x="5"
       height="1"
       width="1"
       id="rect1099-49"
       style="fill:#f1f3f5;fill-rule:evenodd;stroke-width:2.3094" />
    <rect
       ry="0"
       y="92"
       x="5"
       height="1"
       width="1"
       id="rect1099-0"
       style="fill:#f1f3f5;fill-rule:evenodd;stroke-width:2.3094" />
    <rect
       ry="0"
       y="90"
       x="5"
       height="1"
       width="1"
       id="rect1099-9"
       style="fill:#f1f3f5;fill-rule:evenodd;stroke-width:2.3094" />
    <rect
       ry="0"
       y="88"
       x="5"
       height="1"
       width="1"
       id="rect1099-17"
       style="fill:#f1f3f5;fill-rule:evenodd;stroke-width:2.3094" />
    <path
       id="rect1099-71"
       style="fill:#f1f3f5;fill-rule:evenodd;stroke-width:2.3094"
       sodipodi:type="inkscape:offset"
       inkscape:radius="0"
       inkscape:original="M 5 86 L 5 87 L 6 87 L 6 86 L 5 86 z "
       d="m 5,86 v 1 h 1 v -1 z" />
    <rect
       ry="0"
       y="85"
       x="6"
       height="1"
       width="1"
       id="rect1099-15"
       style="fill:#f1f3f5;fill-rule:evenodd;stroke-width:2.3094" />
    <rect
       ry="0"
       y="85"
       x="8"
       height="1"
       width="1"
       id="rect1099-97"
       style="fill:#f1f3f5;fill-rule:evenodd;stroke-width:2.3094" />
    <rect
       ry="0"
       y="85"
       x="10"
       height="1"
       width="1"
       id="rect1099-76"
       style="fill:#f1f3f5;fill-rule:evenodd;stroke-width:2.3094" />
    <rect
       ry="0"
       y="85"
       x="12"
       height="1"
       width="1"
       id="rect1099-73"
       style="fill:#f1f3f5;fill-rule:evenodd;stroke-width:2.3094" />
    <rect
       ry="0"
       y="85"
       x="14"
       height="1"
       width="1"
       id="rect1099-65"
       style="fill:#f1f3f5;fill-rule:evenodd;stroke-width:2.3094" />
    <rect
       ry="0"
       y="85"
       x="16"
       height="1"
       width="1"
       id="rect1099-63"
       style="fill:#f1f3f5;fill-rule:evenodd;stroke-width:2.3094" />
    <rect
       ry="0"
       y="85"
       x="18"
       height="1"
       width="1"
       id="rect1099-94"
       style="fill:#f1f3f5;fill-rule:evenodd;stroke-width:2.3094" />
    <rect
       ry="0"
       y="85"
       x="20"
       height="1"
       width="1"
       id="rect1099-81"
       style="fill:#f1f3f5;fill-rule:evenodd;stroke-width:2.3094" />
    <rect
       ry="0"
       y="85"
       x="22"
       height="1"
       width="1"
       id="rect1099-2"
       style="fill:#f1f3f5;fill-rule:evenodd;stroke-width:2.3094" />
    <rect
       ry="0"
       y="85"
       x="24"
       height="1"
       width="1"
       id="rect1099-93"
       style="fill:#f1f3f5;fill-rule:evenodd;stroke-width:2.3094" />
    <rect
       ry="0"
       y="85"
       x="26"
       height="1"
       width="1"
       id="rect1099-90"
       style="fill:#f1f3f5;fill-rule:evenodd;stroke-width:2.3094" />
    <rect
       ry="0"
       y="87"
       x="26"
       height="1"
       width="1"
       id="rect1099-88"
       style="fill:#f1f3f5;fill-rule:evenodd;stroke-width:2.3094" />
    <rect
       ry="0"
       y="89"
       x="26"
       height="1"
       width="1"
       id="rect1099-50"
       style="fill:#f1f3f5;fill-rule:evenodd;stroke-width:2.3094" />
    <rect
       ry="0"
       y="91"
       x="26"
       height="1"
       width="1"
       id="rect1099-96"
       style="fill:#f1f3f5;fill-rule:evenodd;stroke-width:2.3094" />
    <rect
       ry="0"
       y="93"
       x="26"
       height="1"
       width="1"
       id="rect1099-3"
       style="fill:#f1f3f5;fill-rule:evenodd;stroke-width:2.3094" />
    <rect
       ry="0"
       y="95"
       x="26"
       height="1"
       width="1"
       id="rect1099-85"
       style="fill:#f1f3f5;fill-rule:evenodd;stroke-width:2.3094" />
    <rect
       ry="0"
       y="97"
       x="26"
       height="1"
       width="1"
       id="rect1099-611"
       style="fill:#f1f3f5;fill-rule:evenodd;stroke-width:2.3094" />
    <path
       sodipodi:nodetypes="csscccssssccccccsccsssssccccccsssss"
       inkscape:connector-curvature="0"
       style="color:#000000;clip-rule:nonzero;display:inline;overflow:visible;visibility:visible;opacity:1;isolation:auto;mix-blend-mode:normal;color-interpolation:sRGB;color-interpolation-filters:linearRGB;solid-color:#000000;solid-opacity:1;fill:#003445;fill-opacity:1;fill-rule:nonzero;stroke:none;stroke-width:0.615385;stroke-linecap:butt;stroke-linejoin:miter;stroke-miterlimit:4;stroke-dasharray:none;stroke-dashoffset:0;stroke-opacity:1;color-rendering:auto;image-rendering:auto;shape-rendering:auto;text-rendering:auto;enable-background:accumulate"
       d="M 12,94.461538 C 12,95.311209 12.688793,96 13.538461,96 c 0.849667,0 1.538461,-0.688791 1.538461,-1.538462 0,-0.274507 -0.08555,-0.526889 -0.211538,-0.75 L 15.999999,92.5 l 1.134615,1.211538 c -0.125988,0.223111 -0.211538,0.475493 -0.211538,0.75 C 16.923076,95.311209 17.61187,96 18.461537,96 19.311206,96 20,95.311209 20,94.461538 c 0,-0.849672 -0.688794,-1.538454 -1.538463,-1.538454 -0.141019,0 -0.274099,0.02222 -0.403845,0.05769 l -1.269231,-1.307685 2.596154,-2.749973 v -0.923078 h -0.615386 l -4.826923,4.980773 c -0.129747,-0.03565 -0.262824,-0.05769 -0.403845,-0.05769 -0.849668,0 -1.538461,0.6888 -1.538461,1.53848 z m 0.923077,0 c 0,-0.339858 0.27552,-0.615378 0.615384,-0.615378 0.339865,0 0.615385,0.27552 0.615385,0.615378 0,0.339875 -0.27552,0.615395 -0.615385,0.615395 -0.339864,0 -0.615384,-0.27552 -0.615384,-0.615395 z M 12.615384,88.923085 14.903846,91.34616 15.692307,90.538462 13.230769,88 h -0.615385 z m 5.23077,5.538453 c 0,-0.339858 0.275518,-0.615378 0.615383,-0.615378 0.339863,0 0.615384,0.27552 0.615384,0.615378 0,0.339875 -0.275521,0.615395 -0.615384,0.615395 -0.339865,0 -0.615383,-0.27552 -0.615383,-0.615395 z"
       id="rect6492" />
  </g>
</svg>
