<svg xmlns="http://www.w3.org/2000/svg" xmlns:xlink="http://www.w3.org/1999/xlink" width="64" height="64" viewBox="0 0 16.933 16.933"><path d="M3.043 13.025h1.323v1.323H3.043zm2.381 0h1.323v1.323H5.424zm2.381 0h1.323v1.323H7.805zm2.381 0h1.323v1.323h-1.323zm2.382 0h1.323v1.323h-1.323z" style="fill:#000;stroke:#d50000;stroke-width:0"/><path id="c" d="M.661 10.415h1.323v1.323H.661z" style="fill:#000;stroke:#d50000;stroke-width:0"/><path id="d" d="M14.949 10.415h1.323v1.323h-1.323z" style="fill:#000;stroke:#d50000;stroke-width:0"/><path d="M.661 7.805h1.323v1.323H.661zm14.288 0h1.323v1.323h-1.323zM6.482 6.482h3.969v3.969H6.482z" style="fill:#000;stroke:#d50000;stroke-width:0"/><path id="a" d="M.661 5.195h1.323v1.323H.661z" style="fill:#000;stroke:#d50000;stroke-width:0"/><path id="b" d="M14.949 5.195h1.323v1.323h-1.323z" style="fill:#000;stroke:#d50000;stroke-width:0"/><use xlink:href="#a" transform="translate(0 -2.61)"/><use xlink:href="#b" transform="translate(0 -2.61)"/><path d="M3.043 2.586h1.323v1.323H3.043zm2.381 0h1.323v1.323H5.424zm2.381 0h1.323v1.323H7.805zm2.381 0h1.323v1.323h-1.323zm2.382 0h1.323v1.323h-1.323z" style="fill:#000;stroke:#d50000;stroke-width:0"/><use xlink:href="#c" transform="translate(0 2.61)"/><use xlink:href="#d" transform="translate(0 2.61)"/></svg>